<?xml version="1.0" encoding="UTF-8"?>
<svg id="Capa_2" data-name="Capa 2" xmlns="http://www.w3.org/2000/svg" xmlns:xlink="http://www.w3.org/1999/xlink" viewBox="0 0 987.38 1120.27">
  <defs>
    <style>
      .cls-1, .cls-2, .cls-3 {
        fill: #293277;
      }

      .cls-4 {
        fill: #18223c;
      }

      .cls-2 {
        filter: url(#drop-shadow-1);
        stroke-width: 3.91px;
      }

      .cls-2, .cls-3 {
        stroke: #312782;
        stroke-miterlimit: 10;
      }

      .cls-5, .cls-6, .cls-7 {
        font-family: MontserratRoman-Bold, Montserrat;
        font-variation-settings: 'wght' 700;
        font-weight: 700;
      }

      .cls-6 {
        font-size: 126px;
        letter-spacing: .04em;
      }

      .cls-6, .cls-8 {
        fill: #d9d9d9;
      }

      .cls-9, .cls-10 {
        font-family: MontserratRoman-Regular, Montserrat;
        font-variation-settings: 'wght' 400;
      }

      .cls-9, .cls-11 {
        font-size: 57.59px;
      }

      .cls-3 {
        stroke-width: .53px;
      }

      .cls-7 {
        font-size: 76.19px;
      }

      .cls-7, .cls-12 {
        fill: #fcfcf7;
      }
    </style>
    <filter id="drop-shadow-1" x="196.94" y="0" width="628" height="243" filterUnits="userSpaceOnUse">
      <feOffset dx="20.61" dy="18.44"/>
      <feGaussianBlur result="blur" stdDeviation="10.85"/>
      <feFlood flood-color="#000" flood-opacity=".2"/>
      <feComposite in2="blur" operator="in"/>
      <feComposite in="SourceGraphic"/>
    </filter>
  </defs>
  <g id="Capa_2-2" data-name="Capa 2">
    <path class="cls-12" d="M143.18,100h704.34c55.72,0,100.96,45.24,100.96,100.96v818.36c0,55.72-45.24,100.96-100.96,100.96H143.18c-55.72,0-100.96-45.24-100.96-100.96V200.96c0-55.72,45.24-100.96,100.96-100.96Z"/>
    <rect class="cls-2" x="210.85" y="16.8" width="558.78" height="172.59"/>
    <text class="cls-7" transform="translate(236.67 93.38)"><tspan x="0" y="0">Comunicado</tspan></text>
    <text class="cls-7" transform="translate(261.67 161.89)"><tspan x="0" y="0">importante</tspan></text>
    <text class="cls-9" transform="translate(154.28 267.23)"><tspan x="0" y="0">El navegador de TikTok </tspan><tspan x="-69.85" y="69.1">no permite abrir este enlace.</tspan></text>
    <text class="cls-9" transform="translate(117.85 421.28)"><tspan x="0" y="0">Comunícate con nosotros </tspan><tspan x="224.73" y="69.1">al número.</tspan></text>
    <text class="cls-11" transform="translate(173.95 774.15)"><tspan class="cls-10"><tspan x="0" y="0" xml:space="preserve"> o déjanos tu contacto </tspan></tspan><tspan class="cls-10" x="-10.48" y="69.1">en el buzón y </tspan><tspan class="cls-5" x="387.26" y="69.1">nosotros </tspan><tspan class="cls-5"><tspan x="84.42" y="138.21">te contactamos.</tspan></tspan></text>
    <rect class="cls-4" y="528.45" width="987.38" height="165.76" rx="30.41" ry="30.41"/>
    <text class="cls-6" transform="translate(33.81 656.63)"><tspan x="0" y="0">305 301 25 30</tspan></text>
    <g>
      <polygon class="cls-1" points="435.94 971.03 488.41 992.11 537.49 970.49 523.06 964.19 488.21 977.7 453.16 964.55 435.94 971.03"/>
      <polygon class="cls-4" points="488.41 992.11 488.21 977.7 523.06 964.19 537.49 970.49 488.41 992.11"/>
      <polygon class="cls-4" points="487.72 1082.98 488.32 1002.18 548.41 975.16 548.11 1047.04 532.53 1056.3 531.78 1016.03 509.59 1025.83 509.69 1069.67 487.72 1082.98"/>
      <polygon class="cls-3" points="427.15 1047.16 427.45 975.52 488.21 1002.45 487.61 1082.98 467.96 1071.4 468.16 1026.53 445.29 1016.19 444.38 1057.4 427.15 1047.16"/>
      <polygon class="cls-4" points="487.72 1083.27 488.32 1002.25 548.41 975.16 548.11 1047.24 532.53 1056.51 531.78 1016.14 509.85 1027.02 509.86 1071.21 487.72 1083.27"/>
      <polygon class="cls-8" points="444.38 1057.87 453.76 1049.79 453.86 1020.35 445.35 1016.52 444.38 1057.87"/>
      <polyline class="cls-8" points="532.53 1056.51 523.67 1049.13 523.57 1020.13 531.78 1016.14"/>
    </g>
  </g>
</svg>