<?xml version="1.0" encoding="UTF-8"?>
<svg id="Capa_2" data-name="Capa 2" xmlns="http://www.w3.org/2000/svg" viewBox="0 0 880 138.77">
  <defs>
    <style>
      .cls-1 {
        fill: #2d317d;
      }

      .cls-2 {
        stroke: #d9d9dc;
        stroke-linecap: round;
        stroke-linejoin: round;
        stroke-width: 1.22px;
      }

      .cls-2, .cls-3 {
        fill: #d9d9dc;
      }

      .cls-3 {
        font-family: MontserratRoman-Regular, Montserrat;
        font-size: 33.29px;
        font-variation-settings: 'wght' 400;
      }
    </style>
  </defs>
  <g id="Capa_2-2" data-name="Capa 2">
    <path class="cls-1" d="M185.23,33.76c-7.61,0-13.78,6.21-13.77,13.86h0c0,35.62-28.73,64.5-64.17,64.5S43.12,83.24,43.12,47.62v-.38c0-7.44-5.99-13.48-13.39-13.48h-10.03C8.82,33.76,0,42.63,0,53.56v65.42c0,10.93,8.82,19.79,19.69,19.79h840.61c10.88,0,19.69-8.86,19.69-19.79V53.56c0-10.93-8.82-19.79-19.69-19.79H185.23Z"/>
    <path class="cls-1" d="M108.21,99.02c27.34,0,49.51-22.17,49.51-49.51,0-3.65-.41-7.21-1.16-10.64C151.69,16.64,131.9,0,108.21,0s-43.48,16.64-48.35,38.87c-.75,3.43-1.16,6.98-1.16,10.64,0,27.34,22.17,49.51,49.51,49.51Z"/>
    <text class="cls-3" transform="translate(204.26 96.11)"><tspan x="0" y="0">Obra Civil</tspan></text>
    <g>
      <g>
        <rect class="cls-2" x="87.7" y="33.57" width="43.35" height="9.34"/>
        <g>
          <polygon class="cls-2" points="87.7 39.59 87.7 42.9 91.68 42.9 87.7 39.59"/>
          <polygon class="cls-2" points="93.49 33.57 88.05 33.57 99.27 42.9 104.71 42.9 93.49 33.57"/>
          <polygon class="cls-2" points="106.53 33.57 101.09 33.57 112.31 42.9 117.75 42.9 106.53 33.57"/>
          <polygon class="cls-2" points="119.56 33.57 114.12 33.57 125.34 42.9 130.78 42.9 119.56 33.57"/>
          <polygon class="cls-2" points="131.05 36.8 131.05 33.57 127.16 33.57 131.05 36.8"/>
        </g>
        <rect class="cls-2" x="87.7" y="50.18" width="43.35" height="9.34"/>
        <g>
          <polygon class="cls-2" points="87.7 56.2 87.7 59.52 91.68 59.52 87.7 56.2"/>
          <polygon class="cls-2" points="93.49 50.18 88.05 50.18 99.27 59.52 104.71 59.52 93.49 50.18"/>
          <polygon class="cls-2" points="106.53 50.18 101.09 50.18 112.31 59.52 117.75 59.52 106.53 50.18"/>
          <polygon class="cls-2" points="119.56 50.18 114.12 50.18 125.34 59.52 130.78 59.52 119.56 50.18"/>
          <polygon class="cls-2" points="131.05 53.41 131.05 50.18 127.16 50.18 131.05 53.41"/>
        </g>
      </g>
      <g>
        <rect class="cls-2" x="94.06" y="31.17" width="4.2" height="2.4"/>
        <rect class="cls-2" x="120.48" y="31.17" width="4.2" height="2.4"/>
      </g>
      <g>
        <rect class="cls-2" x="94.06" y="42.9" width="4.2" height="7.27"/>
        <rect class="cls-2" x="120.48" y="42.9" width="4.2" height="7.27"/>
      </g>
      <g>
        <rect class="cls-2" x="94.06" y="59.52" width="4.2" height="16.48"/>
        <rect class="cls-2" x="120.48" y="59.52" width="4.2" height="16.48"/>
      </g>
      <path class="cls-2" d="M98.23,29.1c0,1.15-.93,2.07-2.07,2.07s-2.07-.93-2.07-2.07.93-2.07,2.07-2.07,2.07.93,2.07,2.07Z"/>
      <circle class="cls-2" cx="122.59" cy="29.1" r="2.07"/>
    </g>
  </g>
</svg>