<?xml version="1.0" encoding="UTF-8"?>
<svg id="Capa_2" data-name="Capa 2" xmlns="http://www.w3.org/2000/svg" viewBox="0 0 880 138.85">
  <defs>
    <style>
      .cls-1 {
        fill: #2d317d;
      }

      .cls-2 {
        fill: none;
      }

      .cls-2, .cls-3, .cls-4 {
        stroke: #d9d9dc;
        stroke-linecap: round;
        stroke-linejoin: round;
        stroke-width: 1.32px;
      }

      .cls-3 {
        fill: #231f20;
      }

      .cls-4, .cls-5 {
        fill: #d9d9dc;
      }

      .cls-5 {
        font-family: MontserratRoman-Regular, Montserrat;
        font-size: 33.29px;
        font-variation-settings: 'wght' 400;
      }
    </style>
  </defs>
  <g id="Capa_2-2" data-name="Capa 2">
    <path class="cls-1" d="M185.23,33.84c-7.61,0-13.78,6.21-13.77,13.86h0c0,35.62-28.73,64.5-64.17,64.5S43.12,83.32,43.12,47.7v-.38c0-7.44-5.99-13.48-13.39-13.48h-10.03C8.82,33.84,0,42.7,0,53.63v65.42c0,10.93,8.82,19.79,19.69,19.79h840.61c10.88,0,19.69-8.86,19.69-19.79V53.63c0-10.93-8.82-19.79-19.69-19.79H185.23Z"/>
    <path class="cls-1" d="M108.21,99.02c27.34,0,49.51-22.17,49.51-49.51,0-3.65-.41-7.21-1.16-10.64C151.69,16.64,131.9,0,108.21,0s-43.48,16.64-48.35,38.87c-.75,3.43-1.16,6.98-1.16,10.64,0,27.34,22.17,49.51,49.51,49.51Z"/>
    <text class="cls-5" transform="translate(202.07 96.18)"><tspan x="0" y="0">Proyectos Comerciales e Industriales</tspan></text>
    <g>
      <g>
        <g>
          <path class="cls-4" d="M99.3,38.28h-13.23s.47,19.06-6.61,32.67h26.45c-7.09-13.61-6.61-32.67-6.61-32.67Z"/>
          <line class="cls-4" x1="85.98" y1="42.87" x2="99.39" y2="42.87"/>
        </g>
        <g>
          <path class="cls-4" d="M125.75,38.28h-13.23s.47,19.06-6.61,32.67h26.45c-7.09-13.61-6.61-32.67-6.61-32.67Z"/>
          <line class="cls-4" x1="112.43" y1="42.87" x2="125.85" y2="42.87"/>
        </g>
      </g>
      <path class="cls-3" d="M130.2,17.8c.43-.13.88-.19,1.35-.19h.08"/>
      <path class="cls-2" d="M112.53,38.28v-2.97c0-2.65,2.15-4.81,4.81-4.81h1.49v-3.28c0-2.65,2.15-4.81,4.81-4.81h3.12c0-1.17.42-2.24,1.11-3.07"/>
      <path class="cls-2" d="M104.14,17.7c.32-.07.64-.1.98-.1h.08"/>
      <path class="cls-2" d="M95.12,22.88c.63-.3,1.33-.47,2.07-.47h3.12c0-1.59.77-3,1.96-3.87"/>
      <path class="cls-2" d="M86.09,38.28v-2.97c0-2.65,2.15-4.81,4.81-4.81h1.49v-3.28c0-.73.16-1.42.45-2.04"/>
      <path class="cls-2" d="M125.75,38.28h1.69c3.39,0,6.13-2.75,6.13-6.13v-1.52h0c3.39,0,6.13-2.75,6.13-6.13v-.43"/>
    </g>
  </g>
</svg>