<?xml version="1.0" encoding="UTF-8"?>
<svg id="Capa_2" data-name="Capa 2" xmlns="http://www.w3.org/2000/svg" viewBox="0 0 880 138.84">
  <defs>
    <style>
      .cls-1 {
        stroke: #d9d9dc;
        stroke-linecap: round;
        stroke-linejoin: round;
        stroke-width: 1.23px;
      }

      .cls-1, .cls-2 {
        fill: #d9d9dc;
      }

      .cls-2 {
        font-family: MontserratRoman-Regular, Montserrat;
        font-size: 33.29px;
        font-variation-settings: 'wght' 400;
      }

      .cls-3 {
        fill: #14243c;
      }
    </style>
  </defs>
  <g id="Capa_2-2" data-name="Capa 2">
    <path class="cls-3" d="M185.23,33.84c-7.61,0-13.78,6.21-13.77,13.86h0c0,35.62-28.73,64.5-64.17,64.5S43.12,83.31,43.12,47.69v-.38c0-7.44-5.99-13.48-13.39-13.48h-10.03C8.82,33.84,0,42.7,0,53.63v65.42c0,10.93,8.82,19.79,19.69,19.79h840.61c10.88,0,19.69-8.86,19.69-19.79V53.63c0-10.93-8.82-19.79-19.69-19.79H185.23Z"/>
    <path class="cls-3" d="M108.21,99.02c27.34,0,49.51-22.17,49.51-49.51,0-3.65-.41-7.21-1.16-10.64C151.69,16.64,131.9,0,108.21,0s-43.48,16.64-48.35,38.87c-.75,3.43-1.16,6.98-1.16,10.64,0,27.34,22.17,49.51,49.51,49.51Z"/>
    <text class="cls-2" transform="translate(202.04 96.18)"><tspan x="0" y="0">Proyectos Institucionales</tspan></text>
    <g>
      <polygon class="cls-1" points="78.8 60.43 107.93 60.43 111.44 56.17 78.8 56.17 78.8 60.43"/>
      <rect class="cls-1" x="78.8" y="50.28" width="5.33" height="5.89" transform="translate(162.93 106.45) rotate(180)"/>
      <path class="cls-1" d="M84.13,52.34h10.99l.98-7.5h7.59c1.08,0,2.07.6,2.58,1.55l5.17,9.78-27.4.58.09-4.41Z"/>
      <path class="cls-1" d="M104.56,48.38l1.91,3.84h-6.61v-5.22h2.48c.94,0,1.81.54,2.23,1.38Z"/>
      <g>
        <path class="cls-1" d="M99.83,62.15l7.62,1.68c1,.22,1.71,1.1,1.71,2.12h0c0,1.2-.97,2.17-2.17,2.17h-25.97c-1.2,0-2.17-.97-2.17-2.17h0c0-1.02.71-1.9,1.71-2.12l7.62-1.68c3.84-.84,7.82-.84,11.66,0Z"/>
        <g>
          <circle class="cls-1" cx="81.65" cy="65.91" r=".96"/>
          <circle class="cls-1" cx="106.35" cy="65.91" r=".96"/>
        </g>
        <line class="cls-1" x1="103.97" y1="65.91" x2="84.04" y2="65.91"/>
        <path class="cls-1" d="M89.31,63.74c0,.45.36.81.81.81s.81-.36.81-.81-.36-.81-.81-.81-.81.36-.81.81Z"/>
        <circle class="cls-1" cx="97.89" cy="63.74" r=".81"/>
      </g>
      <path class="cls-1" d="M107.67,48.02l6.42-5.64,5.99-5.26,14.35-2.64c.6-.11,1.04-.63,1.04-1.24v-1.5c0-.7-.57-1.26-1.26-1.26h-16.56l-14.4,14.25"/>
      <polyline class="cls-1" points="133.91 30.48 135.68 29.87 137.45 27.72 139.85 26.9 138.59 52.81 134.67 52.81 133.41 34.67"/>
      <path class="cls-1" d="M119.76,66.94l13.59-.3c2.32-.05,4.23-1.85,4.43-4.17l.81-9.66h-3.92l-11.7,14.05"/>
    </g>
  </g>
</svg>