<?xml version="1.0" encoding="UTF-8"?>
<svg id="Capa_2" data-name="Capa 2" xmlns="http://www.w3.org/2000/svg" viewBox="0 0 880 138.98">
  <defs>
    <style>
      .cls-1 {
        stroke: #d9d9dc;
        stroke-linecap: round;
        stroke-linejoin: round;
        stroke-width: 1.11px;
      }

      .cls-1, .cls-2 {
        fill: #d9d9dc;
      }

      .cls-2 {
        font-family: MontserratRoman-Regular, Montserrat;
        font-size: 33.29px;
        font-variation-settings: 'wght' 400;
      }

      .cls-3 {
        fill: #14243c;
      }
    </style>
  </defs>
  <g id="Capa_2-2" data-name="Capa 2">
    <path class="cls-3" d="M185.23,33.97c-7.61,0-13.78,6.21-13.77,13.86h0c0,35.62-28.73,64.5-64.17,64.5S43.12,83.45,43.12,47.83v-.38c0-7.44-5.99-13.48-13.39-13.48h-10.03C8.82,33.97,0,42.83,0,53.77v65.42c0,10.93,8.82,19.79,19.69,19.79h840.61c10.88,0,19.69-8.86,19.69-19.79V53.77c0-10.93-8.82-19.79-19.69-19.79H185.23Z"/>
    <path class="cls-3" d="M108.21,99.02c27.34,0,49.51-22.17,49.51-49.51,0-3.65-.41-7.21-1.16-10.64C151.69,16.64,131.9,0,108.21,0s-43.48,16.64-48.35,38.87c-.75,3.43-1.16,6.98-1.16,10.64,0,27.34,22.17,49.51,49.51,49.51Z"/>
    <text class="cls-2" transform="translate(201.93 96.31)"><tspan x="0" y="0">Remodelación de Viviendas</tspan></text>
    <g>
      <path class="cls-1" d="M92.8,70.46l11.88-13.34-4.21-4.21-13.34,11.89c-1.72,1.54-1.8,4.2-.17,5.84s4.3,1.55,5.84-.17Z"/>
      <line class="cls-1" x1="102.58" y1="55.01" x2="110" y2="47.59"/>
      <path class="cls-1" d="M131.64,25.96s-19.04,1.08-34.33,16.37l8.98,8.98,8.98,8.98c15.29-15.29,16.37-34.33,16.37-34.33Z"/>
      <path class="cls-1" d="M114.88,42.71s-6.46.37-11.64,5.55l3.04,3.04,3.04,3.04c5.18-5.18,5.55-11.64,5.55-11.64Z"/>
    </g>
  </g>
</svg>