<svg xmlns="http://www.w3.org/2000/svg" version="1.1" xmlns:xlink="http://www.w3.org/1999/xlink" width="512"
    height="512" x="0" y="0" viewBox="0 0 176 176" style="enable-background:new 0 0 512 512" xml:space="preserve">
    <g>
        <g data-name="Layer 2">
            <g data-name="14.tiktok">
                <path fill="#14243c"
                    d="M144.52 173a532.59 532.59 0 0 1-113 0A32.07 32.07 0 0 1 3 144.52a532.59 532.59 0 0 1 0-113A32.07 32.07 0 0 1 31.48 3a532.59 532.59 0 0 1 113 0A32.07 32.07 0 0 1 173 31.48a532.59 532.59 0 0 1 0 113A32.07 32.07 0 0 1 144.52 173z"
                    opacity="1" data-original="#010101"></path>
                <path fill="#ffffff"
                    d="M74.73 143a35.1 35.1 0 0 1 0-70.2h8.57v17.13h-8.57a18 18 0 1 0 18 18V33h17.13v8.56a18 18 0 0 0 18 18h8.57v17.1h-8.63a34.72 34.72 0 0 1-18-5v36.24A35.13 35.13 0 0 1 74.73 143z"
                    opacity="1" data-original="#ffffff"></path>
            </g>
        </g>
    </g>
</svg>