<?xml version="1.0" encoding="UTF-8"?>
<svg id="Capa_2" data-name="Capa 2" xmlns="http://www.w3.org/2000/svg" viewBox="0 0 873.76 953.21">
  <defs>
    <style>
      .cls-1 {
        fill: #dadada;
      }

      .cls-2 {
        stroke: #312783;
        stroke-miterlimit: 10;
        stroke-width: 4px;
      }

      .cls-2, .cls-3 {
        fill: #293277;
      }

      .cls-4 {
        fill: #18223c;
      }
    </style>
  </defs>
  <g id="Capa_1-2" data-name="Capa 1">
    <polygon class="cls-3" points="65.16 54.72 442.44 223.2 795.24 50.4 691.56 0 441 108 189 2.88 65.16 54.72"/>
    <polygon class="cls-4" points="442.44 223.2 441 108 691.56 0 795.24 50.4 442.44 223.2"/>
    <polygon class="cls-4" points="437.44 949.52 441.76 303.68 873.76 87.68 871.6 662.24 759.6 736.2 754.2 414.36 594.69 492.72 595.44 843.12 437.44 949.52"/>
    <polygon class="cls-2" points="2 663.2 4.18 90.56 441 305.84 436.66 949.52 295.4 856.95 296.8 498.31 132.4 415.63 125.88 745.01 2 663.2"/>
    <polygon class="cls-4" points="437.44 951.84 441.76 304.26 873.76 87.68 871.6 663.79 759.6 737.95 754.2 415.24 596.52 502.23 596.64 855.45 437.44 951.84"/>
    <polygon class="cls-1" points="125.88 748.8 193.32 684.17 194.04 448.91 132.84 418.32 125.88 748.8"/>
    <polyline class="cls-1" points="759.6 737.95 695.88 678.96 695.16 447.12 754.2 415.24"/>
  </g>
</svg>