<?xml version="1.0" encoding="UTF-8"?>
<svg id="Capa_2" data-name="Capa 2" xmlns="http://www.w3.org/2000/svg" xmlns:xlink="http://www.w3.org/1999/xlink" viewBox="0 0 1080 517.61">
  <defs>
    <style>
      .cls-1 {
        fill: #2d317d;
      }

      .cls-2 {
        fill: #18223c;
      }

      .cls-3, .cls-4 {
        fill: none;
      }

      .cls-5 {
        clip-path: url(#clippath-1);
      }

      .cls-4 {
        stroke: #312782;
        stroke-miterlimit: 10;
        stroke-width: .4px;
      }

      .cls-6 {
        opacity: .2;
      }

      .cls-7 {
        fill: #d9d9d9;
        opacity: .3;
      }

      .cls-8 {
        clip-path: url(#clippath);
      }

      .cls-9 {
        fill: #14243c;
      }
    </style>
    <clipPath id="clippath">
      <path class="cls-3" d="M0,0v304.69c0,56.79,46.04,102.83,102.83,102.83h176.24c41.73,0,79.26-25.59,94.28-64.52,25.91-67.15,91.06-114.79,167.35-114.79s141.44,47.64,167.35,114.79c15.02,38.93,52.55,64.52,94.28,64.52h168.29c103.83-1.61,109.01,109.65,109.01,109.65l.37-109.65V0H0Z"/>
    </clipPath>
    <clipPath id="clippath-1">
      <rect class="cls-3" x="-246.19" y="-183.07" width="1485.35" height="900.33" transform="translate(-54.21 146.4) rotate(-15.92)"/>
    </clipPath>
  </defs>
  <g id="Capa_3" data-name="Capa 3">
    <path class="cls-1" d="M0,.44v304.69C0,361.92,46.04,407.96,102.83,407.96h176.24c41.73,0,79.26-25.59,94.28-64.52,25.91-67.15,91.06-114.79,167.35-114.79s141.44,47.64,167.35,114.79c15.02,38.93,52.55,64.52,94.28,64.52h168.29c103.83-1.61,109.01,109.65,109.01,109.65l.37-109.65V.44H0Z"/>
    <g class="cls-6">
      <g class="cls-8">
        <g class="cls-5">
          <g>
            <g>
              <polygon class="cls-9" points="20.98 28.48 52.8 1.8 91.66 8.78 83.03 16.51 55.84 12.98 34.38 30.08 20.98 28.48"/>
              <polygon class="cls-2" points="52.8 1.8 55.84 12.98 83.03 16.51 91.66 8.78 52.8 1.8"/>
              <polygon class="cls-2" points="32.3 -68.26 50.52 -5.96 98.22 3.01 82.18 -52.46 69.31 -56.52 77.66 -25.27 60.09 -28.44 50.5 -62.33 32.3 -68.26"/>
              <g>
                <polygon class="cls-9" points="-1.9 -28.59 14.1 26.7 50.38 -6.15 32.22 -68.24 21.12 -55.4 31.14 -20.77 17.53 -8.25 7.82 -39.91 -1.9 -28.59"/>
                <polygon class="cls-4" points="-1.9 -28.59 14.1 26.7 50.38 -6.15 32.22 -68.24 21.12 -55.4 31.14 -20.77 17.53 -8.25 7.82 -39.91 -1.9 -28.59"/>
              </g>
              <polygon class="cls-2" points="32.23 -68.48 50.5 -6.01 98.22 3.01 82.13 -52.61 69.27 -56.69 77.64 -25.35 60 -29.41 50.28 -63.56 32.23 -68.48"/>
            </g>
            <g>
              <polygon class="cls-9" points="-35.95 91.66 5.16 97.54 34.5 71.12 23.09 69.11 1.85 86.45 -25.41 83.24 -35.95 91.66"/>
              <polygon class="cls-2" points="5.16 97.54 1.85 86.45 23.09 69.11 34.5 71.12 5.16 97.54"/>
              <polygon class="cls-2" points="24.7 167.88 7.31 105.34 43.11 72.56 58.74 128.15 49.95 138.38 40.56 107.43 27.3 119.4 37.04 153.24 24.7 167.88"/>
              <g>
                <polygon class="cls-9" points="-25.28 152.21 -40.85 96.8 7.3 105.57 24.62 167.9 8.42 162.85 -1.33 128.15 -19.5 124.69 -11.05 156.7 -25.28 152.21"/>
                <polygon class="cls-4" points="-25.28 152.21 -40.85 96.8 7.3 105.57 24.62 167.9 8.42 162.85 -1.33 128.15 -19.5 124.69 -11.05 156.7 -25.28 152.21"/>
              </g>
              <polygon class="cls-2" points="24.76 168.11 7.33 105.4 43.11 72.56 58.78 128.3 50 138.55 40.59 107.51 27.74 120.27 37.49 154.4 24.76 168.11"/>
              <polyline class="cls-7" points="50 138.55 42.22 134.61 35.76 112.22 40.59 107.51"/>
            </g>
            <g>
              <polygon class="cls-9" points="102.66 52.13 143.77 58.02 173.11 31.59 161.7 29.58 140.46 46.92 113.2 43.71 102.66 52.13"/>
              <polygon class="cls-2" points="143.77 58.02 140.46 46.92 161.7 29.58 173.11 31.59 143.77 58.02"/>
              <polygon class="cls-2" points="163.31 128.35 145.92 65.81 181.72 33.03 197.35 88.62 188.57 98.86 179.17 67.9 165.92 79.87 175.65 113.72 163.31 128.35"/>
              <g>
                <polygon class="cls-9" points="113.33 112.68 97.76 57.28 145.91 66.04 163.23 128.38 147.03 123.32 137.28 88.62 119.11 85.16 127.56 117.18 113.33 112.68"/>
                <polygon class="cls-4" points="113.33 112.68 97.76 57.28 145.91 66.04 163.23 128.38 147.03 123.32 137.28 88.62 119.11 85.16 127.56 117.18 113.33 112.68"/>
              </g>
              <polygon class="cls-2" points="163.37 128.58 145.94 65.87 181.72 33.03 197.39 88.77 188.61 99.03 179.2 67.99 166.36 80.74 176.1 114.87 163.37 128.58"/>
              <polygon class="cls-7" points="127.66 117.54 132.4 109.44 125.99 86.68 119.23 85.41 127.66 117.54"/>
              <polyline class="cls-7" points="188.61 99.03 180.83 95.08 174.37 72.69 179.2 67.99"/>
            </g>
            <g>
              <polygon class="cls-9" points="241.28 12.6 282.38 18.49 311.72 -7.94 300.31 -9.95 279.07 7.39 251.82 4.18 241.28 12.6"/>
              <polygon class="cls-2" points="282.38 18.49 279.07 7.39 300.31 -9.95 311.72 -7.94 282.38 18.49"/>
              <polygon class="cls-2" points="301.92 88.82 284.54 26.29 320.34 -6.5 335.96 49.09 327.18 59.33 317.78 28.37 304.53 40.34 314.26 74.19 301.92 88.82"/>
              <g>
                <polygon class="cls-9" points="251.94 73.15 236.37 17.75 284.52 26.51 301.84 88.85 285.64 83.79 275.89 49.09 257.72 45.63 266.17 77.65 251.94 73.15"/>
                <polygon class="cls-4" points="251.94 73.15 236.37 17.75 284.52 26.51 301.84 88.85 285.64 83.79 275.89 49.09 257.72 45.63 266.17 77.65 251.94 73.15"/>
              </g>
              <polygon class="cls-2" points="301.98 89.05 284.55 26.34 320.34 -6.5 336.01 49.24 327.22 59.5 317.81 28.46 304.97 41.21 314.71 75.34 301.98 89.05"/>
              <polygon class="cls-7" points="266.27 78.01 271.01 69.91 264.6 47.15 257.84 45.88 266.27 78.01"/>
              <polyline class="cls-7" points="327.22 59.5 319.44 55.55 312.98 33.16 317.81 28.46"/>
            </g>
            <g>
              <polygon class="cls-2" points="440.53 49.3 423.15 -13.24 458.95 -46.03 474.57 9.57 465.79 19.8 456.4 -11.16 443.14 .81 452.87 34.66 440.53 49.3"/>
              <g>
                <polygon class="cls-9" points="390.55 33.63 374.98 -21.78 423.13 -13.01 440.45 49.32 424.25 44.27 414.5 9.56 396.33 6.1 404.78 38.12 390.55 33.63"/>
                <polygon class="cls-4" points="390.55 33.63 374.98 -21.78 423.13 -13.01 440.45 49.32 424.25 44.27 414.5 9.56 396.33 6.1 404.78 38.12 390.55 33.63"/>
              </g>
              <polygon class="cls-2" points="440.59 49.52 423.16 -13.19 458.95 -46.03 474.62 9.72 465.84 19.97 456.42 -11.07 443.58 1.68 453.32 35.82 440.59 49.52"/>
              <polygon class="cls-7" points="404.89 38.49 409.62 30.38 403.21 7.62 396.45 6.35 404.89 38.49"/>
              <polyline class="cls-7" points="465.84 19.97 458.05 16.02 451.59 -6.36 456.42 -11.07"/>
            </g>
            <g>
              <polygon class="cls-2" points="579.14 9.77 561.76 -52.77 597.56 -85.55 613.18 -29.96 604.4 -19.73 595.01 -50.69 581.75 -38.72 591.48 -4.87 579.14 9.77"/>
              <g>
                <polygon class="cls-9" points="529.16 -5.9 513.59 -61.31 561.74 -52.54 579.07 9.79 562.86 4.74 553.11 -29.96 534.94 -33.42 543.39 -1.41 529.16 -5.9"/>
                <polygon class="cls-4" points="529.16 -5.9 513.59 -61.31 561.74 -52.54 579.07 9.79 562.86 4.74 553.11 -29.96 534.94 -33.42 543.39 -1.41 529.16 -5.9"/>
              </g>
              <polygon class="cls-2" points="579.21 9.99 561.77 -52.72 597.56 -85.55 613.23 -29.81 604.45 -19.56 595.03 -50.6 582.19 -37.85 591.93 -3.71 579.21 9.99"/>
            </g>
            <g>
              <polygon class="cls-9" points="-46.36 317.94 -14.54 291.25 24.32 298.23 15.69 305.96 -11.5 302.43 -32.96 319.53 -46.36 317.94"/>
              <polygon class="cls-2" points="-14.54 291.25 -11.5 302.43 15.69 305.96 24.32 298.23 -14.54 291.25"/>
              <polygon class="cls-2" points="-35.04 221.19 -16.82 283.49 30.88 292.46 14.84 236.99 1.98 232.93 10.32 264.19 -7.25 261.01 -16.84 227.12 -35.04 221.19"/>
              <polygon class="cls-2" points="-35.11 220.97 -16.84 283.44 30.88 292.46 14.8 236.84 1.93 232.76 10.3 264.1 -7.34 260.04 -17.06 225.9 -35.11 220.97"/>
              <polyline class="cls-7" points="1.93 232.76 -2.61 240.22 3.71 262.65 10.3 264.1"/>
            </g>
            <g>
              <polygon class="cls-9" points="92.25 278.41 124.07 251.73 162.93 258.7 154.3 266.43 127.11 262.9 105.65 280 92.25 278.41"/>
              <polygon class="cls-2" points="124.07 251.73 127.11 262.9 154.3 266.43 162.93 258.7 124.07 251.73"/>
              <polygon class="cls-2" points="103.57 181.66 121.79 243.97 169.49 252.94 153.45 197.46 140.59 193.4 148.93 224.66 131.36 221.48 121.77 187.59 103.57 181.66"/>
              <g>
                <polygon class="cls-9" points="69.38 221.34 85.37 276.62 121.65 243.78 103.49 181.69 92.39 194.53 102.41 229.15 88.8 241.67 79.09 210.02 69.38 221.34"/>
                <polygon class="cls-4" points="69.38 221.34 85.37 276.62 121.65 243.78 103.49 181.69 92.39 194.53 102.41 229.15 88.8 241.67 79.09 210.02 69.38 221.34"/>
              </g>
              <polygon class="cls-2" points="103.51 181.44 121.77 243.91 169.49 252.94 153.41 197.31 140.54 193.23 148.91 224.57 131.27 220.51 121.55 186.37 103.51 181.44"/>
              <polygon class="cls-7" points="78.99 209.65 87.29 214.04 93.84 236.76 88.77 241.4 78.99 209.65"/>
              <polyline class="cls-7" points="140.54 193.23 136.01 200.69 142.33 223.12 148.91 224.57"/>
            </g>
            <g>
              <polygon class="cls-9" points="230.86 238.88 262.68 212.2 301.54 219.17 292.91 226.9 265.72 223.37 244.26 240.48 230.86 238.88"/>
              <polygon class="cls-2" points="262.68 212.2 265.72 223.37 292.91 226.9 301.54 219.17 262.68 212.2"/>
              <polygon class="cls-2" points="242.18 142.14 260.4 204.44 308.11 213.41 292.06 157.94 279.2 153.87 287.55 185.13 269.97 181.95 260.38 148.07 242.18 142.14"/>
              <g>
                <polygon class="cls-9" points="207.99 181.81 223.98 237.1 260.27 204.25 242.1 142.16 231 155 241.02 189.62 227.41 202.14 217.7 170.49 207.99 181.81"/>
                <polygon class="cls-4" points="207.99 181.81 223.98 237.1 260.27 204.25 242.1 142.16 231 155 241.02 189.62 227.41 202.14 217.7 170.49 207.99 181.81"/>
              </g>
              <polygon class="cls-2" points="242.12 141.91 260.38 204.38 308.11 213.41 292.02 157.79 279.15 153.71 287.52 185.04 269.88 180.98 260.16 146.84 242.12 141.91"/>
              <polygon class="cls-7" points="217.6 170.12 225.9 174.51 232.45 197.23 227.38 201.87 217.6 170.12"/>
              <polyline class="cls-7" points="279.15 153.71 274.62 161.16 280.94 183.59 287.52 185.04"/>
            </g>
            <g>
              <polygon class="cls-9" points="369.47 199.35 401.29 172.67 440.15 179.65 431.52 187.38 404.33 183.84 382.87 200.95 369.47 199.35"/>
              <polygon class="cls-2" points="401.29 172.67 404.33 183.84 431.52 187.38 440.15 179.65 401.29 172.67"/>
              <polygon class="cls-2" points="380.79 102.61 399.01 164.91 446.72 173.88 430.67 118.41 417.81 114.35 426.16 145.6 408.58 142.42 398.99 108.54 380.79 102.61"/>
              <g>
                <polygon class="cls-9" points="346.6 142.28 362.59 197.57 398.88 164.72 380.72 102.63 369.61 115.47 379.63 150.09 366.02 162.62 356.32 130.96 346.6 142.28"/>
                <polygon class="cls-4" points="346.6 142.28 362.59 197.57 398.88 164.72 380.72 102.63 369.61 115.47 379.63 150.09 366.02 162.62 356.32 130.96 346.6 142.28"/>
              </g>
              <polygon class="cls-2" points="380.73 102.38 398.99 164.85 446.72 173.88 430.63 118.26 417.76 114.18 426.13 145.52 408.49 141.45 398.77 107.31 380.73 102.38"/>
              <polygon class="cls-7" points="356.21 130.6 364.51 134.98 371.06 157.7 365.99 162.34 356.21 130.6"/>
              <polyline class="cls-7" points="417.76 114.18 413.23 121.63 419.55 144.06 426.13 145.52"/>
            </g>
            <g>
              <polygon class="cls-9" points="508.08 159.82 539.9 133.14 578.77 140.12 570.13 147.85 542.94 144.31 521.48 161.42 508.08 159.82"/>
              <polygon class="cls-2" points="539.9 133.14 542.94 144.31 570.13 147.85 578.77 140.12 539.9 133.14"/>
              <polygon class="cls-2" points="519.4 63.08 537.62 125.38 585.33 134.35 569.28 78.88 556.42 74.82 564.77 106.07 547.19 102.9 537.61 69.01 519.4 63.08"/>
              <g>
                <polygon class="cls-9" points="485.21 102.75 501.2 158.04 537.49 125.19 519.33 63.1 508.22 75.94 518.25 110.57 504.64 123.09 494.93 91.43 485.21 102.75"/>
                <polygon class="cls-4" points="485.21 102.75 501.2 158.04 537.49 125.19 519.33 63.1 508.22 75.94 518.25 110.57 504.64 123.09 494.93 91.43 485.21 102.75"/>
              </g>
              <polygon class="cls-2" points="519.34 62.86 537.6 125.33 585.33 134.35 569.24 78.73 556.37 74.65 564.74 105.99 547.11 101.93 537.38 67.78 519.34 62.86"/>
              <polygon class="cls-7" points="494.82 91.07 503.12 95.45 509.68 118.17 504.6 122.82 494.82 91.07"/>
              <polyline class="cls-7" points="556.37 74.65 551.84 82.11 558.16 104.53 564.74 105.99"/>
            </g>
            <g>
              <polygon class="cls-9" points="646.7 120.3 678.52 93.61 717.38 100.59 708.75 108.32 681.55 104.79 660.09 121.89 646.7 120.3"/>
              <polygon class="cls-2" points="678.52 93.61 681.55 104.79 708.75 108.32 717.38 100.59 678.52 93.61"/>
              <polygon class="cls-2" points="658.01 23.55 676.23 85.85 723.94 94.82 707.89 39.35 695.03 35.29 703.38 66.54 685.8 63.37 676.22 29.48 658.01 23.55"/>
              <g>
                <polygon class="cls-9" points="623.82 63.23 639.81 118.51 676.1 85.67 657.94 23.57 646.84 36.41 656.86 71.04 643.25 83.56 633.54 51.91 623.82 63.23"/>
                <polygon class="cls-4" points="623.82 63.23 639.81 118.51 676.1 85.67 657.94 23.57 646.84 36.41 656.86 71.04 643.25 83.56 633.54 51.91 623.82 63.23"/>
              </g>
              <polygon class="cls-2" points="657.95 23.33 676.22 85.8 723.94 94.82 707.85 39.2 694.98 35.12 703.35 66.46 685.72 62.4 675.99 28.26 657.95 23.33"/>
              <polygon class="cls-7" points="633.43 51.54 641.73 55.93 648.29 78.64 643.21 83.29 633.43 51.54"/>
              <polyline class="cls-7" points="694.98 35.12 690.45 42.58 696.77 65.01 703.35 66.46"/>
            </g>
            <g>
              <polygon class="cls-9" points="785.31 80.77 817.13 54.08 855.99 61.06 847.36 68.79 820.16 65.26 798.7 82.36 785.31 80.77"/>
              <polygon class="cls-2" points="817.13 54.08 820.16 65.26 847.36 68.79 855.99 61.06 817.13 54.08"/>
              <polygon class="cls-2" points="796.62 -15.98 814.84 46.33 862.55 55.29 846.5 -.18 833.64 -4.24 841.99 27.02 824.41 23.84 814.83 -10.05 796.62 -15.98"/>
              <g>
                <polygon class="cls-9" points="762.43 23.7 778.42 78.98 814.71 46.14 796.55 -15.95 785.45 -3.11 795.47 31.51 781.86 44.03 772.15 12.38 762.43 23.7"/>
                <polygon class="cls-4" points="762.43 23.7 778.42 78.98 814.71 46.14 796.55 -15.95 785.45 -3.11 795.47 31.51 781.86 44.03 772.15 12.38 762.43 23.7"/>
              </g>
              <polygon class="cls-2" points="796.56 -16.2 814.83 46.27 862.55 55.29 846.46 -.33 833.59 -4.41 841.97 26.93 824.33 22.87 814.6 -11.27 796.56 -16.2"/>
              <polygon class="cls-7" points="772.04 12.01 780.34 16.4 786.9 39.12 781.83 43.76 772.04 12.01"/>
              <polyline class="cls-7" points="833.59 -4.41 829.06 3.05 835.38 25.48 841.97 26.93"/>
            </g>
            <g>
              <polygon class="cls-9" points="923.92 41.24 955.74 14.56 994.6 21.53 985.97 29.26 958.77 25.73 937.32 42.84 923.92 41.24"/>
              <polygon class="cls-2" points="955.74 14.56 958.77 25.73 985.97 29.26 994.6 21.53 955.74 14.56"/>
              <polygon class="cls-2" points="935.24 -55.5 953.45 6.8 1001.16 15.77 985.12 -39.71 972.25 -43.77 980.6 -12.51 963.02 -15.69 953.44 -49.58 935.24 -55.5"/>
              <g>
                <polygon class="cls-9" points="901.04 -15.83 917.03 39.46 953.32 6.61 935.16 -55.48 924.06 -42.64 934.08 -8.02 920.47 4.5 910.76 -27.15 901.04 -15.83"/>
                <polygon class="cls-4" points="901.04 -15.83 917.03 39.46 953.32 6.61 935.16 -55.48 924.06 -42.64 934.08 -8.02 920.47 4.5 910.76 -27.15 901.04 -15.83"/>
              </g>
              <polygon class="cls-2" points="935.17 -55.73 953.44 6.74 1001.16 15.77 985.07 -39.85 972.2 -43.94 980.58 -12.6 962.94 -16.66 953.21 -50.8 935.17 -55.73"/>
              <polygon class="cls-7" points="910.66 -27.52 918.95 -23.13 925.51 -.41 920.44 4.23 910.66 -27.52"/>
            </g>
            <g>
              <polygon class="cls-9" points="1062.53 1.71 1094.35 -24.97 1133.21 -17.99 1124.58 -10.27 1097.38 -13.8 1075.93 3.31 1062.53 1.71"/>
              <polygon class="cls-4" points="1039.65 -55.36 1055.65 -.07 1091.93 -32.92 1073.77 -95.01 1062.67 -82.17 1072.69 -47.55 1059.08 -35.02 1049.37 -66.68 1039.65 -55.36"/>
            </g>
            <g>
              <polygon class="cls-9" points="35.33 341.58 76.43 347.47 105.77 321.04 94.36 319.03 73.12 336.37 45.87 333.16 35.33 341.58"/>
              <polygon class="cls-2" points="76.43 347.47 73.12 336.37 94.36 319.03 105.77 321.04 76.43 347.47"/>
              <polygon class="cls-2" points="95.97 417.81 78.59 355.27 114.39 322.48 130.01 378.07 121.23 388.31 111.83 357.35 98.58 369.32 108.31 403.17 95.97 417.81"/>
              <g>
                <polygon class="cls-9" points="45.99 402.13 30.42 346.73 78.57 355.5 95.89 417.83 79.69 412.77 69.94 378.07 51.77 374.61 60.22 406.63 45.99 402.13"/>
                <polygon class="cls-4" points="45.99 402.13 30.42 346.73 78.57 355.5 95.89 417.83 79.69 412.77 69.94 378.07 51.77 374.61 60.22 406.63 45.99 402.13"/>
              </g>
              <polygon class="cls-2" points="96.03 418.03 78.6 355.32 114.39 322.48 130.05 378.22 121.27 388.48 111.86 357.44 99.02 370.19 108.76 404.33 96.03 418.03"/>
              <polygon class="cls-7" points="60.32 406.99 65.06 398.89 58.65 376.13 51.89 374.86 60.32 406.99"/>
              <polyline class="cls-7" points="121.27 388.48 113.49 384.53 107.03 362.15 111.86 357.44"/>
            </g>
            <g>
              <polygon class="cls-9" points="173.94 302.06 215.04 307.94 244.38 281.52 232.97 279.5 211.73 296.85 184.48 293.63 173.94 302.06"/>
              <polygon class="cls-2" points="215.04 307.94 211.73 296.85 232.97 279.5 244.38 281.52 215.04 307.94"/>
              <polygon class="cls-2" points="234.58 378.28 217.2 315.74 253 282.96 268.62 338.55 259.84 348.78 250.44 317.82 237.19 329.79 246.92 363.64 234.58 378.28"/>
              <g>
                <polygon class="cls-9" points="184.6 362.61 169.03 307.2 217.18 315.97 234.5 378.3 218.3 373.25 208.55 338.55 190.38 335.09 198.83 367.1 184.6 362.61"/>
                <polygon class="cls-4" points="184.6 362.61 169.03 307.2 217.18 315.97 234.5 378.3 218.3 373.25 208.55 338.55 190.38 335.09 198.83 367.1 184.6 362.61"/>
              </g>
              <polygon class="cls-2" points="234.64 378.5 217.21 315.79 253 282.96 268.67 338.7 259.89 348.95 250.47 317.91 237.63 330.66 247.37 364.8 234.64 378.5"/>
              <polygon class="cls-7" points="198.94 367.47 203.67 359.36 197.26 336.6 190.5 335.33 198.94 367.47"/>
              <polyline class="cls-7" points="259.89 348.95 252.1 345.01 245.64 322.62 250.47 317.91"/>
            </g>
            <g>
              <polygon class="cls-9" points="312.55 262.53 353.66 268.41 382.99 241.99 371.58 239.98 350.34 257.32 323.09 254.11 312.55 262.53"/>
              <polygon class="cls-2" points="353.66 268.41 350.34 257.32 371.58 239.98 382.99 241.99 353.66 268.41"/>
              <polygon class="cls-2" points="373.19 338.75 355.81 276.21 391.61 243.43 407.23 299.02 398.45 309.25 389.06 278.3 375.8 290.27 385.53 324.11 373.19 338.75"/>
              <g>
                <polygon class="cls-9" points="323.21 323.08 307.64 267.67 355.79 276.44 373.11 338.77 356.91 333.72 347.16 299.02 328.99 295.56 337.44 327.57 323.21 323.08"/>
                <polygon class="cls-4" points="323.21 323.08 307.64 267.67 355.79 276.44 373.11 338.77 356.91 333.72 347.16 299.02 328.99 295.56 337.44 327.57 323.21 323.08"/>
              </g>
              <polygon class="cls-2" points="373.25 338.97 355.82 276.27 391.61 243.43 407.28 299.17 398.5 309.42 389.08 278.38 376.24 291.14 385.98 325.27 373.25 338.97"/>
              <polygon class="cls-7" points="337.55 327.94 342.28 319.83 335.87 297.08 329.11 295.81 337.55 327.94"/>
              <polyline class="cls-7" points="398.5 309.42 390.71 305.48 384.25 283.09 389.08 278.38"/>
            </g>
            <g>
              <polygon class="cls-9" points="451.16 223 492.27 228.88 521.6 202.46 510.19 200.45 488.95 217.79 461.7 214.58 451.16 223"/>
              <polygon class="cls-2" points="492.27 228.88 488.95 217.79 510.19 200.45 521.6 202.46 492.27 228.88"/>
              <polygon class="cls-2" points="511.8 299.22 494.42 236.68 530.22 203.9 545.85 259.49 537.06 269.72 527.67 238.77 514.41 250.74 524.14 284.58 511.8 299.22"/>
              <g>
                <polygon class="cls-9" points="461.82 283.55 446.25 228.14 494.4 236.91 511.73 299.24 495.52 294.19 485.77 259.49 467.6 256.03 476.05 288.04 461.82 283.55"/>
                <polygon class="cls-4" points="461.82 283.55 446.25 228.14 494.4 236.91 511.73 299.24 495.52 294.19 485.77 259.49 467.6 256.03 476.05 288.04 461.82 283.55"/>
              </g>
              <polygon class="cls-2" points="511.87 299.45 494.43 236.74 530.22 203.9 545.89 259.64 537.11 269.89 527.69 238.85 514.85 251.61 524.6 285.74 511.87 299.45"/>
              <polygon class="cls-7" points="476.16 288.41 480.89 280.3 474.48 257.55 467.72 256.28 476.16 288.41"/>
              <polyline class="cls-7" points="537.11 269.89 529.32 265.95 522.86 243.56 527.69 238.85"/>
            </g>
            <g>
              <polygon class="cls-9" points="589.77 183.47 630.88 189.36 660.21 162.93 648.8 160.92 627.56 178.26 600.31 175.05 589.77 183.47"/>
              <polygon class="cls-2" points="630.88 189.36 627.56 178.26 648.8 160.92 660.21 162.93 630.88 189.36"/>
              <polygon class="cls-2" points="650.41 259.69 633.03 197.15 668.83 164.37 684.46 219.96 675.67 230.2 666.28 199.24 653.02 211.21 662.75 245.06 650.41 259.69"/>
              <g>
                <polygon class="cls-9" points="600.44 244.02 584.86 188.62 633.02 197.38 650.34 259.72 634.13 254.66 624.38 219.96 606.22 216.5 614.66 248.52 600.44 244.02"/>
                <polygon class="cls-4" points="600.44 244.02 584.86 188.62 633.02 197.38 650.34 259.72 634.13 254.66 624.38 219.96 606.22 216.5 614.66 248.52 600.44 244.02"/>
              </g>
              <polygon class="cls-2" points="650.48 259.92 633.05 197.21 668.83 164.37 684.5 220.11 675.72 230.37 666.3 199.33 653.46 212.08 663.21 246.21 650.48 259.92"/>
              <polygon class="cls-7" points="614.77 248.88 619.51 240.78 613.09 218.02 606.33 216.75 614.77 248.88"/>
              <polyline class="cls-7" points="675.72 230.37 667.93 226.42 661.47 204.03 666.3 199.33"/>
            </g>
            <g>
              <polygon class="cls-9" points="728.38 143.94 769.49 149.83 798.82 123.4 787.41 121.39 766.17 138.73 738.92 135.52 728.38 143.94"/>
              <polygon class="cls-2" points="769.49 149.83 766.17 138.73 787.41 121.39 798.82 123.4 769.49 149.83"/>
              <polygon class="cls-2" points="789.02 220.16 771.64 157.63 807.44 124.84 823.07 180.43 814.28 190.67 804.89 159.71 791.63 171.68 801.36 205.53 789.02 220.16"/>
              <g>
                <polygon class="cls-9" points="739.05 204.49 723.47 149.09 771.63 157.85 788.95 220.19 772.74 215.13 762.99 180.43 744.83 176.97 753.27 208.99 739.05 204.49"/>
                <polygon class="cls-4" points="739.05 204.49 723.47 149.09 771.63 157.85 788.95 220.19 772.74 215.13 762.99 180.43 744.83 176.97 753.27 208.99 739.05 204.49"/>
              </g>
              <polygon class="cls-2" points="789.09 220.39 771.66 157.68 807.44 124.84 823.11 180.58 814.33 190.84 804.91 159.8 792.07 172.55 801.82 206.68 789.09 220.39"/>
              <polygon class="cls-7" points="753.38 209.35 758.12 201.25 751.7 178.49 744.94 177.22 753.38 209.35"/>
              <polyline class="cls-7" points="814.33 190.84 806.54 186.89 800.09 164.5 804.91 159.8"/>
            </g>
            <g>
              <polygon class="cls-9" points="866.99 104.42 908.1 110.3 937.43 83.88 926.02 81.86 904.78 99.21 877.53 95.99 866.99 104.42"/>
              <polygon class="cls-2" points="908.1 110.3 904.78 99.21 926.02 81.86 937.43 83.88 908.1 110.3"/>
              <polygon class="cls-2" points="927.63 180.64 910.25 118.1 946.05 85.31 961.68 140.91 952.89 151.14 943.5 120.18 930.24 132.15 939.97 166 927.63 180.64"/>
              <g>
                <polygon class="cls-9" points="877.66 164.97 862.08 109.56 910.24 118.33 927.56 180.66 911.35 175.61 901.61 140.9 883.44 137.44 891.89 169.46 877.66 164.97"/>
                <polygon class="cls-4" points="877.66 164.97 862.08 109.56 910.24 118.33 927.56 180.66 911.35 175.61 901.61 140.9 883.44 137.44 891.89 169.46 877.66 164.97"/>
              </g>
              <polygon class="cls-2" points="927.7 180.86 910.27 118.15 946.05 85.31 961.72 141.05 952.94 151.31 943.52 120.27 930.68 133.02 940.43 167.16 927.7 180.86"/>
              <polygon class="cls-7" points="891.99 169.83 896.73 161.72 890.31 138.96 883.55 137.69 891.99 169.83"/>
              <polyline class="cls-7" points="952.94 151.31 945.16 147.36 938.7 124.98 943.52 120.27"/>
            </g>
            <g>
              <polygon class="cls-9" points="1005.6 64.89 1046.71 70.77 1076.05 44.35 1064.64 42.33 1043.4 59.68 1016.14 56.46 1005.6 64.89"/>
              <polygon class="cls-2" points="1046.71 70.77 1043.4 59.68 1064.64 42.33 1076.05 44.35 1046.71 70.77"/>
              <polygon class="cls-2" points="1066.25 141.11 1048.86 78.57 1084.66 45.79 1100.29 101.38 1091.5 111.61 1082.11 80.65 1068.85 92.62 1078.58 126.47 1066.25 141.11"/>
              <g>
                <polygon class="cls-9" points="1016.27 125.44 1000.7 70.03 1048.85 78.8 1066.17 141.13 1049.97 136.08 1040.22 101.38 1022.05 97.92 1030.5 129.93 1016.27 125.44"/>
                <polygon class="cls-4" points="1016.27 125.44 1000.7 70.03 1048.85 78.8 1066.17 141.13 1049.97 136.08 1040.22 101.38 1022.05 97.92 1030.5 129.93 1016.27 125.44"/>
              </g>
              <polygon class="cls-2" points="1066.31 141.33 1048.88 78.62 1084.66 45.79 1100.33 101.53 1091.55 111.78 1082.13 80.74 1069.29 93.49 1079.04 127.63 1066.31 141.33"/>
              <polygon class="cls-7" points="1030.6 130.3 1035.34 122.19 1028.92 99.43 1022.16 98.16 1030.6 130.3"/>
              <polyline class="cls-7" points="1091.55 111.78 1083.77 107.84 1077.31 85.45 1082.13 80.74"/>
            </g>
            <g>
              <polygon class="cls-2" points="36.23 471.12 54.45 533.42 102.15 542.39 86.11 486.92 73.25 482.86 81.6 514.11 64.02 510.93 54.43 477.05 36.23 471.12"/>
              <g>
                <polygon class="cls-9" points="2.04 510.79 18.03 566.08 54.32 533.23 36.15 471.14 25.05 483.98 35.07 518.6 21.46 531.13 11.75 499.47 2.04 510.79"/>
                <polygon class="cls-4" points="2.04 510.79 18.03 566.08 54.32 533.23 36.15 471.14 25.05 483.98 35.07 518.6 21.46 531.13 11.75 499.47 2.04 510.79"/>
              </g>
              <polygon class="cls-2" points="36.17 470.89 54.43 533.36 102.15 542.39 86.07 486.77 73.2 482.69 81.57 514.02 63.93 509.96 54.21 475.82 36.17 470.89"/>
              <polygon class="cls-7" points="11.65 499.1 19.95 503.49 26.5 526.21 21.43 530.85 11.65 499.1"/>
              <polyline class="cls-7" points="73.2 482.69 68.67 490.14 74.99 512.57 81.57 514.02"/>
            </g>
            <g>
              <polygon class="cls-9" points="163.52 528.33 195.34 501.65 234.2 508.63 225.57 516.36 198.38 512.82 176.92 529.93 163.52 528.33"/>
              <polygon class="cls-2" points="195.34 501.65 198.38 512.82 225.57 516.36 234.2 508.63 195.34 501.65"/>
              <polygon class="cls-2" points="174.84 431.59 193.06 493.89 240.77 502.86 224.72 447.39 211.86 443.33 220.21 474.58 202.63 471.4 193.04 437.52 174.84 431.59"/>
              <g>
                <polygon class="cls-9" points="140.65 471.26 156.64 526.55 192.93 493.7 174.77 431.61 163.66 444.45 173.68 479.07 160.07 491.6 150.37 459.94 140.65 471.26"/>
                <polygon class="cls-4" points="140.65 471.26 156.64 526.55 192.93 493.7 174.77 431.61 163.66 444.45 173.68 479.07 160.07 491.6 150.37 459.94 140.65 471.26"/>
              </g>
              <polygon class="cls-2" points="174.78 431.36 193.04 493.83 240.77 502.86 224.68 447.24 211.81 443.16 220.18 474.5 202.54 470.43 192.82 436.29 174.78 431.36"/>
              <polygon class="cls-7" points="150.26 459.58 158.56 463.96 165.11 486.68 160.04 491.32 150.26 459.58"/>
              <polyline class="cls-7" points="211.81 443.16 207.28 450.62 213.6 473.04 220.18 474.5"/>
            </g>
            <g>
              <polygon class="cls-9" points="302.13 488.8 333.95 462.12 372.82 469.1 364.18 476.83 336.99 473.3 315.53 490.4 302.13 488.8"/>
              <polygon class="cls-2" points="333.95 462.12 336.99 473.3 364.18 476.83 372.82 469.1 333.95 462.12"/>
              <polygon class="cls-2" points="313.45 392.06 331.67 454.36 379.38 463.33 363.33 407.86 350.47 403.8 358.82 435.05 341.24 431.88 331.66 397.99 313.45 392.06"/>
              <g>
                <polygon class="cls-9" points="279.26 431.74 295.25 487.02 331.54 454.17 313.38 392.08 302.27 404.92 312.3 439.55 298.68 452.07 288.98 420.41 279.26 431.74"/>
                <polygon class="cls-4" points="279.26 431.74 295.25 487.02 331.54 454.17 313.38 392.08 302.27 404.92 312.3 439.55 298.68 452.07 288.98 420.41 279.26 431.74"/>
              </g>
              <polygon class="cls-2" points="313.39 391.84 331.65 454.31 379.38 463.33 363.29 407.71 350.42 403.63 358.79 434.97 341.16 430.91 331.43 396.77 313.39 391.84"/>
              <polygon class="cls-7" points="288.87 420.05 297.17 424.44 303.73 447.15 298.65 451.8 288.87 420.05"/>
              <polyline class="cls-7" points="350.42 403.63 345.89 411.09 352.21 433.51 358.79 434.97"/>
            </g>
            <g>
              <polygon class="cls-9" points="440.74 449.28 472.57 422.59 511.43 429.57 502.79 437.3 475.6 433.77 454.14 450.87 440.74 449.28"/>
              <polygon class="cls-2" points="472.57 422.59 475.6 433.77 502.79 437.3 511.43 429.57 472.57 422.59"/>
              <polygon class="cls-2" points="452.06 352.53 470.28 414.83 517.99 423.8 501.94 368.33 489.08 364.27 497.43 395.53 479.85 392.35 470.27 358.46 452.06 352.53"/>
              <g>
                <polygon class="cls-9" points="417.87 392.21 433.86 447.49 470.15 414.65 451.99 352.55 440.89 365.39 450.91 400.02 437.3 412.54 427.59 380.89 417.87 392.21"/>
                <polygon class="cls-4" points="417.87 392.21 433.86 447.49 470.15 414.65 451.99 352.55 440.89 365.39 450.91 400.02 437.3 412.54 427.59 380.89 417.87 392.21"/>
              </g>
              <polygon class="cls-2" points="452 352.31 470.27 414.78 517.99 423.8 501.9 368.18 489.03 364.1 497.4 395.44 479.77 391.38 470.04 357.24 452 352.31"/>
              <polygon class="cls-7" points="427.48 380.52 435.78 384.91 442.34 407.63 437.26 412.27 427.48 380.52"/>
              <polyline class="cls-7" points="489.03 364.1 484.5 371.56 490.82 393.99 497.4 395.44"/>
            </g>
            <g>
              <polygon class="cls-9" points="579.36 409.75 611.18 383.07 650.04 390.04 641.41 397.77 614.21 394.24 592.75 411.34 579.36 409.75"/>
              <polygon class="cls-2" points="611.18 383.07 614.21 394.24 641.41 397.77 650.04 390.04 611.18 383.07"/>
              <polygon class="cls-2" points="590.67 313 608.89 375.31 656.6 384.28 640.55 328.8 627.69 324.74 636.04 356 618.46 352.82 608.88 318.93 590.67 313"/>
              <g>
                <polygon class="cls-9" points="556.48 352.68 572.47 407.96 608.76 375.12 590.6 313.03 579.5 325.87 589.52 360.49 575.91 373.01 566.2 341.36 556.48 352.68"/>
                <polygon class="cls-4" points="556.48 352.68 572.47 407.96 608.76 375.12 590.6 313.03 579.5 325.87 589.52 360.49 575.91 373.01 566.2 341.36 556.48 352.68"/>
              </g>
              <polygon class="cls-2" points="590.61 312.78 608.88 375.25 656.6 384.28 640.51 328.65 627.64 324.57 636.02 355.91 618.38 351.85 608.65 317.71 590.61 312.78"/>
              <polygon class="cls-7" points="566.09 340.99 574.39 345.38 580.95 368.1 575.88 372.74 566.09 340.99"/>
              <polyline class="cls-7" points="627.64 324.57 623.11 332.03 629.43 354.46 636.02 355.91"/>
            </g>
            <g>
              <polygon class="cls-9" points="717.97 370.22 749.79 343.54 788.65 350.51 780.02 358.24 752.82 354.71 731.36 371.82 717.97 370.22"/>
              <polygon class="cls-2" points="749.79 343.54 752.82 354.71 780.02 358.24 788.65 350.51 749.79 343.54"/>
              <polygon class="cls-2" points="729.29 273.48 747.5 335.78 795.21 344.75 779.16 289.28 766.3 285.21 774.65 316.47 757.07 313.29 747.49 279.41 729.29 273.48"/>
              <g>
                <polygon class="cls-9" points="695.09 313.15 711.08 368.44 747.37 335.59 729.21 273.5 718.11 286.34 728.13 320.96 714.52 333.48 704.81 301.83 695.09 313.15"/>
                <polygon class="cls-4" points="695.09 313.15 711.08 368.44 747.37 335.59 729.21 273.5 718.11 286.34 728.13 320.96 714.52 333.48 704.81 301.83 695.09 313.15"/>
              </g>
              <polygon class="cls-2" points="729.22 273.25 747.49 335.72 795.21 344.75 779.12 289.13 766.25 285.05 774.63 316.38 756.99 312.32 747.26 278.18 729.22 273.25"/>
              <polygon class="cls-7" points="704.7 301.46 713 305.85 719.56 328.57 714.49 333.21 704.7 301.46"/>
              <polyline class="cls-7" points="766.25 285.05 761.72 292.5 768.04 314.93 774.63 316.38"/>
            </g>
            <g>
              <polygon class="cls-9" points="856.58 330.69 888.4 304.01 927.26 310.99 918.63 318.72 891.43 315.18 869.98 332.29 856.58 330.69"/>
              <polygon class="cls-2" points="888.4 304.01 891.43 315.18 918.63 318.72 927.26 310.99 888.4 304.01"/>
              <polygon class="cls-2" points="867.9 233.95 886.11 296.25 933.82 305.22 917.78 249.75 904.91 245.69 913.26 276.94 895.68 273.76 886.1 239.88 867.9 233.95"/>
              <g>
                <polygon class="cls-9" points="833.7 273.62 849.7 328.91 885.98 296.06 867.82 233.97 856.72 246.81 866.74 281.43 853.13 293.96 843.42 262.3 833.7 273.62"/>
                <polygon class="cls-4" points="833.7 273.62 849.7 328.91 885.98 296.06 867.82 233.97 856.72 246.81 866.74 281.43 853.13 293.96 843.42 262.3 833.7 273.62"/>
              </g>
              <polygon class="cls-2" points="867.83 233.72 886.1 296.19 933.82 305.22 917.73 249.6 904.86 245.52 913.24 276.86 895.6 272.79 885.88 238.65 867.83 233.72"/>
              <polygon class="cls-7" points="843.32 261.94 851.62 266.32 858.17 289.04 853.1 293.68 843.32 261.94"/>
              <polyline class="cls-7" points="904.86 245.52 900.33 252.97 906.65 275.4 913.24 276.86"/>
            </g>
            <g>
              <polygon class="cls-9" points="995.19 291.16 1027.01 264.48 1065.87 271.46 1057.24 279.19 1030.05 275.65 1008.59 292.76 995.19 291.16"/>
              <polygon class="cls-2" points="1027.01 264.48 1030.05 275.65 1057.24 279.19 1065.87 271.46 1027.01 264.48"/>
              <polygon class="cls-2" points="1006.51 194.42 1024.73 256.72 1072.43 265.69 1056.39 210.22 1043.52 206.16 1051.87 237.41 1034.29 234.24 1024.71 200.35 1006.51 194.42"/>
              <g>
                <polygon class="cls-9" points="972.31 234.09 988.31 289.38 1024.59 256.53 1006.43 194.44 995.33 207.28 1005.35 241.91 991.74 254.43 982.03 222.77 972.31 234.09"/>
                <polygon class="cls-4" points="972.31 234.09 988.31 289.38 1024.59 256.53 1006.43 194.44 995.33 207.28 1005.35 241.91 991.74 254.43 982.03 222.77 972.31 234.09"/>
              </g>
              <polygon class="cls-2" points="1006.44 194.2 1024.71 256.67 1072.43 265.69 1056.34 210.07 1043.48 205.99 1051.85 237.33 1034.21 233.27 1024.49 199.12 1006.44 194.2"/>
              <polygon class="cls-7" points="981.93 222.41 990.23 226.79 996.78 249.51 991.71 254.16 981.93 222.41"/>
              <polyline class="cls-7" points="1043.48 205.99 1038.94 213.45 1045.26 235.87 1051.85 237.33"/>
            </g>
            <g>
              <polygon class="cls-9" points="383.82 512.45 424.93 518.34 454.26 491.91 442.85 489.9 421.61 507.24 394.36 504.03 383.82 512.45"/>
              <polygon class="cls-2" points="424.93 518.34 421.61 507.24 442.85 489.9 454.26 491.91 424.93 518.34"/>
              <polygon class="cls-2" points="444.46 588.67 427.08 526.13 462.88 493.35 478.51 548.94 469.72 559.18 460.33 528.22 447.07 540.19 456.8 574.04 444.46 588.67"/>
              <g>
                <polygon class="cls-9" points="394.49 573 378.91 517.6 427.07 526.36 444.39 588.7 428.18 583.64 418.43 548.94 400.27 545.48 408.71 577.5 394.49 573"/>
                <polygon class="cls-4" points="394.49 573 378.91 517.6 427.07 526.36 444.39 588.7 428.18 583.64 418.43 548.94 400.27 545.48 408.71 577.5 394.49 573"/>
              </g>
              <polygon class="cls-2" points="444.53 588.9 427.1 526.19 462.88 493.35 478.55 549.09 469.77 559.35 460.35 528.31 447.51 541.06 457.26 575.19 444.53 588.9"/>
            </g>
            <g>
              <polygon class="cls-9" points="522.43 472.92 563.54 478.81 592.87 452.38 581.46 450.37 560.22 467.71 532.97 464.5 522.43 472.92"/>
              <polygon class="cls-2" points="563.54 478.81 560.22 467.71 581.46 450.37 592.87 452.38 563.54 478.81"/>
              <polygon class="cls-2" points="583.07 549.15 565.69 486.61 601.49 453.82 617.12 509.41 608.33 519.65 598.94 488.69 585.68 500.66 595.41 534.51 583.07 549.15"/>
              <g>
                <polygon class="cls-9" points="533.1 533.47 517.52 478.07 565.68 486.84 583 549.17 566.79 544.11 557.04 509.41 538.88 505.95 547.32 537.97 533.1 533.47"/>
                <polygon class="cls-4" points="533.1 533.47 517.52 478.07 565.68 486.84 583 549.17 566.79 544.11 557.04 509.41 538.88 505.95 547.32 537.97 533.1 533.47"/>
              </g>
              <polygon class="cls-2" points="583.14 549.37 565.71 486.66 601.49 453.82 617.16 509.56 608.38 519.82 598.96 488.78 586.12 501.53 595.87 535.67 583.14 549.37"/>
              <polygon class="cls-7" points="547.43 538.33 552.17 530.23 545.75 507.47 538.99 506.2 547.43 538.33"/>
              <polyline class="cls-7" points="608.38 519.82 600.59 515.87 594.14 493.48 598.96 488.78"/>
            </g>
            <g>
              <polygon class="cls-9" points="661.04 433.4 702.15 439.28 731.48 412.86 720.07 410.84 698.83 428.19 671.58 424.97 661.04 433.4"/>
              <polygon class="cls-2" points="702.15 439.28 698.83 428.19 720.07 410.84 731.48 412.86 702.15 439.28"/>
              <polygon class="cls-2" points="721.68 509.62 704.3 447.08 740.1 414.3 755.73 469.89 746.94 480.12 737.55 449.16 724.29 461.13 734.02 494.98 721.68 509.62"/>
              <g>
                <polygon class="cls-9" points="671.71 493.95 656.13 438.54 704.29 447.31 721.61 509.64 705.4 504.59 695.66 469.89 677.49 466.42 685.94 498.44 671.71 493.95"/>
                <polygon class="cls-4" points="671.71 493.95 656.13 438.54 704.29 447.31 721.61 509.64 705.4 504.59 695.66 469.89 677.49 466.42 685.94 498.44 671.71 493.95"/>
              </g>
              <polygon class="cls-2" points="721.75 509.84 704.32 447.13 740.1 414.3 755.77 470.04 746.99 480.29 737.57 449.25 724.73 462 734.48 496.14 721.75 509.84"/>
              <polygon class="cls-7" points="686.04 498.81 690.78 490.7 684.36 467.94 677.6 466.67 686.04 498.81"/>
              <polyline class="cls-7" points="746.99 480.29 739.21 476.35 732.75 453.96 737.57 449.25"/>
            </g>
            <g>
              <polygon class="cls-9" points="799.65 393.87 840.76 399.75 870.1 373.33 858.69 371.32 837.45 388.66 810.19 385.45 799.65 393.87"/>
              <polygon class="cls-2" points="840.76 399.75 837.45 388.66 858.69 371.32 870.1 373.33 840.76 399.75"/>
              <polygon class="cls-2" points="860.3 470.09 842.91 407.55 878.71 374.77 894.34 430.36 885.55 440.59 876.16 409.64 862.9 421.61 872.63 455.45 860.3 470.09"/>
              <g>
                <polygon class="cls-9" points="810.32 454.42 794.75 399.01 842.9 407.78 860.22 470.11 844.01 465.06 834.27 430.36 816.1 426.9 824.55 458.91 810.32 454.42"/>
                <polygon class="cls-4" points="810.32 454.42 794.75 399.01 842.9 407.78 860.22 470.11 844.01 465.06 834.27 430.36 816.1 426.9 824.55 458.91 810.32 454.42"/>
              </g>
              <polygon class="cls-2" points="860.36 470.31 842.93 407.61 878.71 374.77 894.38 430.51 885.6 440.76 876.18 409.72 863.34 422.48 873.09 456.61 860.36 470.31"/>
              <polygon class="cls-7" points="824.65 459.28 829.39 451.17 822.97 428.42 816.21 427.15 824.65 459.28"/>
              <polyline class="cls-7" points="885.6 440.76 877.82 436.82 871.36 414.43 876.18 409.72"/>
            </g>
            <g>
              <polygon class="cls-9" points="938.26 354.34 979.37 360.22 1008.71 333.8 997.3 331.79 976.06 349.13 948.8 345.92 938.26 354.34"/>
              <polygon class="cls-2" points="979.37 360.22 976.06 349.13 997.3 331.79 1008.71 333.8 979.37 360.22"/>
              <polygon class="cls-2" points="998.91 430.56 981.52 368.02 1017.32 335.24 1032.95 390.83 1024.16 401.06 1014.77 370.11 1001.51 382.08 1011.24 415.92 998.91 430.56"/>
              <g>
                <polygon class="cls-9" points="948.93 414.89 933.36 359.48 981.51 368.25 998.83 430.58 982.63 425.53 972.88 390.83 954.71 387.37 963.16 419.38 948.93 414.89"/>
                <polygon class="cls-4" points="948.93 414.89 933.36 359.48 981.51 368.25 998.83 430.58 982.63 425.53 972.88 390.83 954.71 387.37 963.16 419.38 948.93 414.89"/>
              </g>
              <polygon class="cls-2" points="998.97 430.79 981.54 368.08 1017.32 335.24 1032.99 390.98 1024.21 401.23 1014.8 370.19 1001.95 382.95 1011.7 417.08 998.97 430.79"/>
              <polygon class="cls-7" points="963.26 419.75 968 411.64 961.58 388.89 954.83 387.62 963.26 419.75"/>
              <polyline class="cls-7" points="1024.21 401.23 1016.43 397.29 1009.97 374.9 1014.8 370.19"/>
            </g>
            <g>
              <polygon class="cls-9" points="1076.87 314.81 1117.98 320.7 1147.32 294.27 1135.91 292.26 1114.67 309.6 1087.41 306.39 1076.87 314.81"/>
              <g>
                <polygon class="cls-9" points="1087.54 375.36 1071.97 319.96 1120.12 328.72 1137.44 391.06 1121.24 386 1111.49 351.3 1093.32 347.84 1101.77 379.85 1087.54 375.36"/>
                <polygon class="cls-4" points="1087.54 375.36 1071.97 319.96 1120.12 328.72 1137.44 391.06 1121.24 386 1111.49 351.3 1093.32 347.84 1101.77 379.85 1087.54 375.36"/>
              </g>
            </g>
            <g>
              <polygon class="cls-2" points="939.17 483.87 957.39 546.17 1005.09 555.14 989.05 499.67 976.18 495.61 984.53 526.87 966.96 523.69 957.37 489.8 939.17 483.87"/>
              <g>
                <polygon class="cls-9" points="904.97 523.55 920.97 578.83 957.25 545.99 939.09 483.89 927.99 496.73 938.01 531.36 924.4 543.88 914.69 512.23 904.97 523.55"/>
                <polygon class="cls-4" points="904.97 523.55 920.97 578.83 957.25 545.99 939.09 483.89 927.99 496.73 938.01 531.36 924.4 543.88 914.69 512.23 904.97 523.55"/>
              </g>
              <polygon class="cls-2" points="939.1 483.65 957.37 546.12 1005.09 555.14 989.01 499.52 976.14 495.44 984.51 526.78 966.87 522.72 957.15 488.58 939.1 483.65"/>
              <polygon class="cls-7" points="914.59 511.86 922.89 516.25 929.44 538.97 924.37 543.61 914.59 511.86"/>
              <polyline class="cls-7" points="976.14 495.44 971.6 502.9 977.92 525.33 984.51 526.78"/>
            </g>
            <g>
              <polygon class="cls-9" points="1066.46 541.09 1098.28 514.41 1137.14 521.38 1128.51 529.11 1101.32 525.58 1079.86 542.68 1066.46 541.09"/>
              <polygon class="cls-2" points="1077.78 444.34 1096 506.65 1143.7 515.62 1127.66 460.14 1114.8 456.08 1123.14 487.34 1105.57 484.16 1095.98 450.27 1077.78 444.34"/>
              <g>
                <polygon class="cls-9" points="1043.59 484.02 1059.58 539.3 1095.86 506.46 1077.7 444.37 1066.6 457.21 1076.62 491.83 1063.01 504.35 1053.3 472.7 1043.59 484.02"/>
                <polygon class="cls-4" points="1043.59 484.02 1059.58 539.3 1095.86 506.46 1077.7 444.37 1066.6 457.21 1076.62 491.83 1063.01 504.35 1053.3 472.7 1043.59 484.02"/>
              </g>
              <polygon class="cls-2" points="1077.72 444.12 1095.98 506.59 1143.7 515.62 1127.62 459.99 1114.75 455.91 1123.12 487.25 1105.48 483.19 1095.76 449.05 1077.72 444.12"/>
              <polygon class="cls-7" points="1053.2 472.33 1061.5 476.72 1068.05 499.44 1062.98 504.08 1053.2 472.33"/>
            </g>
          </g>
        </g>
      </g>
    </g>
  </g>
</svg>