<?xml version="1.0" standalone="no"?>
<!DOCTYPE svg PUBLIC "-//W3C//DTD SVG 20010904//EN"
 "http://www.w3.org/TR/2001/REC-SVG-20010904/DTD/svg10.dtd">
<svg version="1.0" xmlns="http://www.w3.org/2000/svg"
 width="1400.000000pt" height="1401.000000pt" viewBox="0 0 1400.000000 1401.000000"
 preserveAspectRatio="xMidYMid meet">

<g transform="translate(0.000000,1401.000000) scale(0.100000,-0.100000)"
fill="#000000" stroke="none">
<path d="M8470 11199 c-674 -291 -1238 -534 -1255 -540 -28 -10 -120 26 -1280
511 -687 287 -1254 522 -1260 523 -12 0 -1217 -502 -1228 -512 -4 -4 841 -386
1877 -849 l1886 -842 1760 862 c968 474 1760 865 1760 868 0 4 -980 485 -1030
505 -3 1 -556 -236 -1230 -526z"/>
<path d="M2806 10716 c-3 -72 -8 -1220 -11 -2551 -3 -1331 -8 -2569 -11 -2750
l-7 -331 629 -415 629 -415 3 30 c1 17 18 755 36 1639 19 885 37 1611 39 1614
3 2 368 -179 812 -403 l807 -407 -3 -1794 -4 -1795 719 -471 720 -472 21 20
c11 11 368 229 792 485 l772 465 3 1769 3 1769 481 266 c265 146 489 272 498
280 27 23 581 320 586 314 3 -2 17 -725 32 -1605 14 -880 28 -1602 31 -1604 3
-3 255 160 560 362 l554 367 7 1001 c3 551 9 1848 12 2884 l7 1883 -2163
-1081 -2163 -1082 -156 75 c-86 42 -1072 527 -2193 1080 l-2036 1004 -6 -131z"/>
</g>
</svg>
